<?xml version="1.0" encoding="UTF-8" standalone="no"?>
<svg
   width="801"
   height="116.612"
   viewBox="0 0 801 116.612"
   id="svg2"
   version="1.1"
   inkscape:version="1.1.1 (1:1.1+202109281949+c3084ef5ed)"
   sodipodi:docname="logo.svg"
   style="fill:none"
   inkscape:export-filename="/home/cmd/Arbeit/Divizend/Marketing/divizend_120.png"
   inkscape:export-xdpi="14.382023"
   inkscape:export-ydpi="14.382023"
   xmlns:inkscape="http://www.inkscape.org/namespaces/inkscape"
   xmlns:sodipodi="http://sodipodi.sourceforge.net/DTD/sodipodi-0.dtd"
   xmlns="http://www.w3.org/2000/svg"
   xmlns:svg="http://www.w3.org/2000/svg"
   xmlns:rdf="http://www.w3.org/1999/02/22-rdf-syntax-ns#"
   xmlns:cc="http://creativecommons.org/ns#"
   xmlns:dc="http://purl.org/dc/elements/1.1/">
  <metadata
     id="metadata42">
    <rdf:RDF>
      <cc:Work
         rdf:about="">
        <dc:format>image/svg+xml</dc:format>
        <dc:type
           rdf:resource="http://purl.org/dc/dcmitype/StillImage" />
      </cc:Work>
    </rdf:RDF>
  </metadata>
  <defs
     id="defs40" />
  <sodipodi:namedview
     pagecolor="#ffffff"
     bordercolor="#666666"
     borderopacity="1"
     objecttolerance="10"
     gridtolerance="10"
     guidetolerance="10"
     inkscape:pageopacity="0"
     inkscape:pageshadow="2"
     inkscape:window-width="1920"
     inkscape:window-height="1005"
     id="namedview38"
     showgrid="false"
     fit-margin-top="0"
     fit-margin-left="0"
     fit-margin-right="0"
     fit-margin-bottom="0"
     inkscape:zoom="0.58532728"
     inkscape:cx="228.07753"
     inkscape:cy="105.92365"
     inkscape:window-x="0"
     inkscape:window-y="0"
     inkscape:window-maximized="1"
     inkscape:current-layer="svg2"
     inkscape:pagecheckerboard="0" />
  <path
     d="M 46.697,1.19 0,1.19 l 0,115.398 46.697,0 c 19.061,0 33.522,-4.708 43.028,-14.448 l 0.007,-0.007 c 9.48,-9.831 14.076,-24.32 14.076,-43.16 0,-18.944 -4.593,-33.439 -14.08,-43.163 C 80.223,5.956 65.761,1.19 46.697,1.19 Z m -3.192,24.356 c 9.878,0 17.027,2.759 21.765,8.012 l 0.012,0.013 c 4.738,5.15 7.283,13.493 7.283,25.402 0,11.672 -2.539,19.975 -7.295,25.247 -4.738,5.253 -11.887,8.012 -21.765,8.012 l -12.934,0 0,-66.686 12.934,0 z"
     id="path6"
     inkscape:connector-curvature="0"
     style="clip-rule:evenodd;fill:#3c9d9b;fill-rule:evenodd" />
  <path
     d="m 161.749,1.19 -30.572,0 0,115.398 30.572,0 0,-115.398 z"
     id="path8"
     inkscape:connector-curvature="0"
     style="fill:#3c9d9b" />
  <path
     d="M 257.92,116.588 303.081,1.176 270.51,1.365 244.513,79.357 218.511,1.19 l -35.043,0 43.08,115.398 31.372,0 z"
     id="path10"
     inkscape:connector-curvature="0"
     style="fill:#3c9d9b" />
  <path
     d="m 351.509,1.214 -30.571,0 0,115.398 30.571,0 0,-115.398 z"
     id="path12"
     inkscape:connector-curvature="0"
     style="fill:#3c9d9b" />
  <path
     d="m 743.89,0 -46.7,0 0,115.398 46.7,0 c 19.06,0 33.52,-4.708 43.03,-14.448 l 0,-0.008 C 796.4,91.111 801,76.623 801,57.783 801,38.839 796.41,24.343 786.92,14.62 777.42,4.766 762.95,0 743.89,0 Z m -3.19,24.356 c 9.87,0 17.02,2.759 21.76,8.012 l 0.01,0.012 c 4.74,5.151 7.29,13.493 7.29,25.403 0,11.672 -2.54,19.975 -7.3,25.247 -4.74,5.253 -11.89,8.012 -21.76,8.012 l -12.94,0 0,-66.686 12.94,0 z m 23.01,59.799 c 0,0 0,0 0,0 0.08,-0.089 0.16,-0.179 0.24,-0.27 -0.08,0.091 -0.16,0.181 -0.24,0.27 z m 1.81,-2.286 c 3.94,-5.671 5.92,-13.7 5.92,-24.086 0,-12.094 -2.58,-20.941 -7.73,-26.54 -5.15,-5.711 -12.82,-8.567 -23.01,-8.567 l -14.62,0 0,0 14.62,0 c 10.19,0 17.86,2.856 23.01,8.567 5.15,5.599 7.73,14.446 7.73,26.54 0,10.386 -1.98,18.415 -5.92,24.086 z m -66.65,31.849 0,-112.039 0,0 0,112.039 45.02,0 c 0.73,0 1.46,-0.007 2.18,-0.021 -0.72,0.014 -1.45,0.021 -2.18,0.021 l -45.02,0 z"
     id="path14"
     inkscape:connector-curvature="0"
     style="clip-rule:evenodd;fill:#3c9d9b;fill-rule:evenodd" />
  <path
     d="m 489.576,113.718 c -1.392,0 -2.52,-1.128 -2.52,-2.519 l 0,-107.504 c 0,-1.391 1.128,-2.519 2.52,-2.519 1.392,0 2.52,1.128 2.52,2.519 l 0,107.504 c 0,1.391 -1.128,2.519 -2.52,2.519 z"
     id="path16"
     inkscape:connector-curvature="0"
     style="clip-rule:evenodd;fill:#3c9d9b;fill-rule:evenodd" />
  <path
     d="m 499.654,113.718 c -1.391,0 -2.519,-1.128 -2.519,-2.519 l 0,-107.504 c 0,-1.391 1.128,-2.519 2.519,-2.519 1.392,0 2.52,1.128 2.52,2.519 l 0,107.504 c 0,1.391 -1.128,2.519 -2.52,2.519 z"
     id="path18"
     inkscape:connector-curvature="0"
     style="clip-rule:evenodd;fill:#3c9d9b;fill-rule:evenodd" />
  <path
     d="m 581.122,111.199 c 0,1.391 1.128,2.519 2.519,2.519 1.392,0 2.52,-1.128 2.52,-2.519 l 0,-96.772 5.039,9.36 0,87.412 c 0,1.391 1.128,2.519 2.52,2.519 1.391,0 2.519,-1.128 2.519,-2.519 l 0,-78.051 5.04,9.361 0,68.69 c 0,1.391 1.128,2.519 2.519,2.519 1.392,0 2.52,-1.128 2.52,-2.519 l 0,-59.329 32.598,60.553 c 0.661,1.225 2.186,1.677 3.408,1.011 1.222,-0.667 1.676,-2.2 1.015,-3.425 L 585.985,2.767 c -0.37,-0.932 -1.28,-1.591 -2.344,-1.591 -1.391,0 -2.519,1.128 -2.519,2.519 l 0,107.504 z"
     id="path20"
     inkscape:connector-curvature="0"
     style="clip-rule:evenodd;fill:#3c9d9b;fill-rule:evenodd" />
  <path
     d="m 655.967,113.405 c -1.222,0.666 -2.748,0.214 -3.408,-1.011 L 593.459,4.956 c -0.661,-1.224 -0.206,-2.757 1.016,-3.424 1.221,-0.666 2.747,-0.214 3.408,1.011 l 59.099,107.437 c 0.661,1.225 0.206,2.758 -1.015,3.425 z"
     id="path22"
     inkscape:connector-curvature="0"
     style="clip-rule:evenodd;fill:#3c9d9b;fill-rule:evenodd" />
  <path
     d="m 644.952,66.09 0,-62.395 c 0,-1.392 1.128,-2.52 2.519,-2.52 1.392,0 2.52,1.128 2.52,2.52 l 0,71.7 5.039,9.305 0,-81.005 c 0,-1.391 1.128,-2.519 2.52,-2.519 1.391,0 2.519,1.128 2.519,2.519 l 0,90.31 5.04,9.305 0,-99.615 c 0,-1.391 1.128,-2.519 2.519,-2.519 1.392,0 2.52,1.128 2.52,2.519 l 0,107.504 c 0,1.391 -1.128,2.519 -2.52,2.519 -0.817,0 -1.543,-0.388 -2.003,-0.991 -0.105,-0.117 -0.197,-0.246 -0.275,-0.39 L 606.09,4.913 c -0.661,-1.225 -0.206,-2.758 1.015,-3.425 1.222,-0.666 2.748,-0.214 3.408,1.011 l 34.439,63.591 z"
     id="path24"
     inkscape:connector-curvature="0"
     style="clip-rule:evenodd;fill:#3c9d9b;fill-rule:evenodd" />
  <path
     d="m 509.733,1.175 c -1.392,0 -2.52,1.128 -2.52,2.52 l 0,0.02 0,10.058 0,10.079 0,23.516 0,10.079 0,10.078 0,23.517 0,10.078 0,10.079 c 0,1.391 1.128,2.519 2.52,2.519 l 41.993,0 c 1.392,0 2.52,-1.128 2.52,-2.519 0,-1.392 -1.128,-2.52 -2.52,-2.52 l -39.474,0 0,-5.039 39.474,0 c 1.392,0 2.52,-1.128 2.52,-2.52 0,-1.392 -1.128,-2.52 -2.52,-2.52 l -39.474,0 0,-5.039 39.474,0 c 1.392,0 2.52,-1.128 2.52,-2.519 0,-1.392 -1.128,-2.52 -2.52,-2.52 l -39.474,0 0,-18.477 39.474,0 c 1.392,0 2.52,-1.128 2.52,-2.52 0,-1.391 -1.128,-2.519 -2.52,-2.519 l -39.474,0 0,-5.04 39.474,0 c 1.392,0 2.52,-1.128 2.52,-2.519 0,-1.392 -1.128,-2.52 -2.52,-2.52 l -39.474,0 0,-5.039 39.474,0 c 1.392,0 2.52,-1.128 2.52,-2.52 0,-1.391 -1.128,-2.519 -2.52,-2.519 l -39.474,0 0,-18.478 39.474,0 c 1.392,0 2.52,-1.128 2.52,-2.519 0,-1.392 -1.128,-2.52 -2.52,-2.52 l -39.474,0 0,-5.039 39.474,0 c 1.392,0 2.52,-1.128 2.52,-2.52 0,-1.391 -1.128,-2.519 -2.52,-2.519 l -39.474,0 0,-5.039 39.474,0 c 1.392,0 2.52,-1.128 2.52,-2.52 0,-1.392 -1.128,-2.52 -2.52,-2.52 l -41.993,0 z"
     id="path26"
     inkscape:connector-curvature="0"
     style="clip-rule:evenodd;fill:#3c9d9b;fill-rule:evenodd" />
  <path
     d="m 379.553,3.695 c 0,-1.392 1.128,-2.52 2.519,-2.52 l 78.948,0 c 1.392,0 2.52,1.128 2.52,2.52 0,1.392 -1.128,2.52 -2.52,2.52 l -78.948,0 c -1.391,0 -2.519,-1.128 -2.519,-2.52 z"
     id="path28"
     inkscape:connector-curvature="0"
     style="clip-rule:evenodd;fill:#3c9d9b;fill-rule:evenodd" />
  <path
     d="m 379.553,13.773 c 0,-1.391 1.128,-2.519 2.519,-2.519 l 78.948,0 c 1.392,0 2.52,1.128 2.52,2.519 0,1.392 -1.128,2.52 -2.52,2.52 l -78.948,0 c -1.391,0 -2.519,-1.128 -2.519,-2.52 z"
     id="path30"
     inkscape:connector-curvature="0"
     style="clip-rule:evenodd;fill:#3c9d9b;fill-rule:evenodd" />
  <path
     d="m 379.553,101.12 c 0,-1.391 1.128,-2.519 2.519,-2.519 l 78.948,0 c 1.392,0 2.52,1.128 2.52,2.519 0,1.392 -1.128,2.52 -2.52,2.52 l -78.948,0 c -1.391,0 -2.519,-1.128 -2.519,-2.52 z"
     id="path32"
     inkscape:connector-curvature="0"
     style="clip-rule:evenodd;fill:#3c9d9b;fill-rule:evenodd" />
  <path
     d="m 382.072,21.332 c -1.391,0 -2.519,1.128 -2.519,2.52 0,1.392 1.128,2.52 2.519,2.52 l 43.863,0 -45.839,63.071 c -0.094,0.128 -0.174,0.262 -0.24,0.399 -0.193,0.357 -0.303,0.766 -0.303,1.2 0,1.391 1.128,2.519 2.519,2.519 l 78.948,0 c 1.392,0 2.52,-1.128 2.52,-2.519 0,-1.392 -1.128,-2.52 -2.52,-2.52 l -44.006,0 45.961,-63.081 c 0.353,-0.433 0.565,-0.986 0.565,-1.589 0,-1.392 -1.128,-2.52 -2.52,-2.52 l -78.948,0 z m 74.516,5.04 -9.211,0 -45.56,62.15 8.95,0 45.821,-62.15 z m -15.465,0 -8.898,0 -45.227,62.15 8.444,0 45.681,-62.15 z"
     id="path34"
     inkscape:connector-curvature="0"
     style="clip-rule:evenodd;fill:#3c9d9b;fill-rule:evenodd" />
  <path
     d="m 379.553,111.199 c 0,-1.392 1.128,-2.52 2.519,-2.52 l 78.948,0 c 1.392,0 2.52,1.128 2.52,2.52 0,1.391 -1.128,2.519 -2.52,2.519 l -78.948,0 c -1.391,0 -2.519,-1.128 -2.519,-2.519 z"
     id="path36"
     inkscape:connector-curvature="0"
     style="clip-rule:evenodd;fill:#3c9d9b;fill-rule:evenodd" />
</svg>
